<svg xmlns="http://www.w3.org/2000/svg" viewBox="0 0 233 145.2"><defs><style>.cls-1{fill:#e8e81e;}.cls-2{fill:#202b34;}.cls-3{fill:none;stroke:#202b34;stroke-miterlimit:10;stroke-width:6px;}</style></defs><g id="Capa_2" data-name="Capa 2"><g id="Capa_2-2" data-name="Capa 2"><path class="cls-1" d="M233,18.66v38c-78.45,35-147.78,13.67-181-1.35V18.66Z"/><path class="cls-1" d="M233,72.4v72.8H52V75.78C135.58,96.35,209.25,79.22,233,72.4Z"/><ellipse class="cls-1" cx="141.7" cy="79.53" rx="9.61" ry="12.81"/><path class="cls-1" d="M111.27,25.07s25.62-49.66,62.46,0"/><path class="cls-2" d="M181,18.66v38c-78.45,35-147.78,13.67-181-1.35V18.66Z"/><path class="cls-2" d="M181,72.4v72.8H0V75.78C83.58,96.35,157.25,79.22,181,72.4Z"/><ellipse class="cls-2" cx="89.7" cy="79.53" rx="9.61" ry="12.81"/><path class="cls-3" d="M59.27,25.07s25.62-49.66,62.46,0"/></g></g></svg>