<svg xmlns="http://www.w3.org/2000/svg" viewBox="0 0 234 169.17"><defs><style>.cls-1{fill:#e8e81e;}.cls-2{fill:#202b34;}</style></defs><g id="Capa_2" data-name="Capa 2"><g id="Capa_2-2" data-name="Capa 2"><polygon class="cls-1" points="42.02 61.54 214.99 61.54 214.99 52.27 130.88 0 43.44 51.56 42.02 61.54"/><polygon class="cls-1" points="46.06 66.53 71.96 66.53 71.96 75.32 67.2 75.32 67.2 129.25 71.96 129.25 71.96 137.1 46.06 137.1 46.06 129.73 51.52 129.73 51.52 75.8 46.06 75.8 46.06 66.53"/><polygon class="cls-1" points="93.1 66.53 119 66.53 119 75.32 114.25 75.32 114.25 129.25 119 129.25 119 137.1 93.1 137.1 93.1 129.73 98.57 129.73 98.57 75.8 93.1 75.8 93.1 66.53"/><polygon class="cls-1" points="140.15 66.53 166.05 66.53 166.05 75.32 161.29 75.32 161.29 129.25 166.05 129.25 166.05 137.1 140.15 137.1 140.15 129.73 145.61 129.73 145.61 75.8 140.15 75.8 140.15 66.53"/><polygon class="cls-1" points="187.19 66.53 213.09 66.53 213.09 75.32 208.34 75.32 208.34 129.25 213.09 129.25 213.09 137.1 187.19 137.1 187.19 129.73 192.66 129.73 192.66 75.8 187.19 75.8 187.19 66.53"/><polygon class="cls-1" points="42.02 142.56 214.99 142.56 214.99 150.4 224.97 150.4 224.97 158.72 234 158.72 234 169.17 28 169.17 28 159.43 38.1 159.43 38.1 150.76 42.14 150.76 42.02 142.56"/><polygon class="cls-2" points="14.02 61.54 186.99 61.54 186.99 52.27 102.88 0 15.44 51.56 14.02 61.54"/><polygon class="cls-2" points="18.06 66.53 43.96 66.53 43.96 75.32 39.2 75.32 39.2 129.25 43.96 129.25 43.96 137.1 18.06 137.1 18.06 129.73 23.52 129.73 23.52 75.8 18.06 75.8 18.06 66.53"/><polygon class="cls-2" points="65.1 66.53 91 66.53 91 75.32 86.25 75.32 86.25 129.25 91 129.25 91 137.1 65.1 137.1 65.1 129.73 70.57 129.73 70.57 75.8 65.1 75.8 65.1 66.53"/><polygon class="cls-2" points="112.15 66.53 138.05 66.53 138.05 75.32 133.29 75.32 133.29 129.25 138.05 129.25 138.05 137.1 112.15 137.1 112.15 129.73 117.61 129.73 117.61 75.8 112.15 75.8 112.15 66.53"/><polygon class="cls-2" points="159.19 66.53 185.09 66.53 185.09 75.32 180.34 75.32 180.34 129.25 185.09 129.25 185.09 137.1 159.19 137.1 159.19 129.73 164.66 129.73 164.66 75.8 159.19 75.8 159.19 66.53"/><polygon class="cls-2" points="14.02 142.56 186.99 142.56 186.99 150.4 196.97 150.4 196.97 158.72 206 158.72 206 169.17 0 169.17 0 159.43 10.1 159.43 10.1 150.76 14.14 150.76 14.02 142.56"/></g></g></svg>