<svg xmlns="http://www.w3.org/2000/svg" viewBox="0 0 280.8 159.25"><defs><style>.cls-1{fill:#e8e81e;}.cls-2{fill:#202b34;}</style></defs><g id="Capa_2" data-name="Capa 2"><g id="Capa_2-2" data-name="Capa 2"><path class="cls-1" d="M275.29,4.5,275,.25H56.57L55.15,41.38s33.19,3.4,19,29.5S42,132.3,42,132.3l14.19,23.54,45.67,3.41L133.31,92.3s8.22-16.17,19.85-1.7l51.35.28s9.36-10.49,4.25-35.74l64-3.83s6.53-1.7,6.53-18.44S284.65,15.28,275.29,4.5ZM193.16,82.66H156.57V54h36.59Z"/><path class="cls-2" d="M233.32,4.26,233,0H14.61L13.19,41.13s33.19,3.41,19,29.51S0,132.05,0,132.05L14.18,155.6,59.86,159,91.34,92.05s8.23-16.17,19.86-1.7l51.35.28s9.36-10.49,4.25-35.74l64-3.83s6.52-1.7,6.52-18.44S242.68,15,233.32,4.26ZM151.2,82.41H114.6V53.76h36.6Z"/></g></g></svg>